name C:\Users\u0101727\Documents\MyRepositories\upper-imu-dc\Results\main_tracking\Case_20\kinematics.mot
datacolumns 10
datarows 47
range 4.83000000 5.29000000
endheader 
time	clav_prot	clav_elev	scapula_abduction	scapula_elevation	scapula_upward_rot	scapula_winging	plane_elv	shoulder_elv	axial_rot	
          4.83000000	        -26.62413647	         15.84886174	         -1.26769841	          3.79005427	         47.64801329	         -5.99857806	         76.27167638	         60.18505846	        -16.28083130	
          4.84000000	        -26.22369270	         15.63419833	         -1.24618773	          3.76333837	         46.74165782	         -5.78133670	         76.28015211	         59.92607652	        -16.18740012	
          4.85000000	        -25.82860160	         15.38475794	         -1.22425922	          3.71778819	         45.82361089	         -5.56230106	         76.26325782	         59.68058906	        -16.16178306	
          4.86000000	        -25.44019561	         15.09903931	         -1.20284053	          3.65220206	         44.89445238	         -5.34155540	         76.22153726	         59.44744284	        -16.20576860	
          4.87000000	        -25.06035355	         14.78176721	         -1.18338757	          3.56918951	         43.95879159	         -5.11965922	         76.15725729	         59.22356304	        -16.31025121	
          4.88000000	        -24.69073881	         14.44273242	         -1.16684507	          3.47447669	         43.02426769	         -4.89756415	         76.07353787	         59.00431491	        -16.45692473	
          4.89000000	        -24.33225724	         14.09451911	         -1.15296858	          3.37551537	         42.09994317	         -4.67651276	         75.97359117	         58.78424316	        -16.62211072	
          4.90000000	        -23.98487296	         13.74966193	         -1.14022192	          3.27973104	         41.19445698	         -4.45787915	         75.86029277	         58.55805284	        -16.78199297	
          4.91000000	        -23.64776793	         13.41827110	         -1.12612414	          3.19304719	         40.31463884	         -4.24299042	         75.73610654	         58.32139656	        -16.91686191	
          4.92000000	        -23.31963906	         13.10661943	         -1.10772469	          3.11900366	         39.46479714	         -4.03295624	         75.60320797	         58.07131947	        -17.01352306	
          4.93000000	        -22.99887684	         12.81674033	         -1.08185491	          3.05852153	         38.64656546	         -3.82852941	         75.46359769	         57.80641901	        -17.06616946	
          4.94000000	        -22.68340524	         12.54725085	         -1.04472570	          3.01044687	         37.85944903	         -3.63009079	         75.31906021	         57.52657579	        -17.07492045	
          4.95000000	        -22.36979975	         12.29499952	         -0.99019116	          2.97263917	         37.10182382	         -3.43776924	         75.17099344	         57.23239968	        -17.04284646	
          4.96000000	        -22.04979849	         12.05663881	         -0.90327731	          2.94316252	         36.37178981	         -3.25160410	         75.02028942	         56.92485329	        -16.97343940	
          4.97000000	        -21.59071568	         11.82002291	         -0.53424374	          2.92090016	         35.66741008	         -3.07188927	         74.86747044	         56.60522886	        -16.87065121	
          4.98000000	        -21.58764829	         11.63104719	         -1.00958980	          2.90487408	         34.98650255	         -2.89759479	         74.71203852	         56.27559826	        -16.73622577	
          4.99000000	        -21.57471516	         11.44797757	         -1.44765934	          2.89220494	         34.32718706	         -2.72580893	         74.55284588	         55.93777018	        -16.57021882	
          5.00000000	        -21.82303418	         11.29264678	         -2.36240782	          2.88340807	         33.68619441	         -2.55579954	         74.39036229	         55.59526076	        -16.37465653	
          5.01000000	        -21.62189789	         11.11261775	         -2.41747297	          2.88148843	         33.06300460	         -2.38780885	         74.22490068	         55.24963580	        -16.14854765	
          5.02000000	        -21.63854150	         10.96433248	         -2.87013928	          2.88822182	         32.45944014	         -2.22252885	         74.05351967	         54.89948799	        -15.88508729	
          5.03000000	        -21.83390382	         10.85187148	         -3.64691519	          2.90804625	         31.87874336	         -2.06086205	         73.87252156	         54.54249757	        -15.56655071	
          5.04000000	        -21.72551894	         10.74198706	         -3.84275489	          2.94419139	         31.32303239	         -1.90372590	         73.67734680	         54.17649095	        -15.18018659	
          5.05000000	        -21.75361950	         10.66513728	         -4.28278625	          2.99308767	         30.79229107	         -1.75146300	         73.46185202	         53.79907021	        -14.72075611	
          5.06000000	        -21.77003392	         10.60165425	         -4.68903255	          3.04977253	         30.28202894	         -1.60318813	         73.22178517	         53.41221760	        -14.19445198	
          5.07000000	        -21.76633863	         10.53937875	         -5.04664400	          3.10731539	         29.78451783	         -1.45714719	         72.95575692	         53.02127736	        -13.62393572	
          5.08000000	        -21.74421116	         10.46593296	         -5.35976072	          3.15828463	         29.29104003	         -1.31132255	         72.66579943	         52.63322825	        -13.04025181	
          5.09000000	        -21.71152701	         10.37239923	         -5.64422469	          3.19716197	         28.79429848	         -1.16399983	         72.35686508	         52.25480286	        -12.47554508	
          5.10000000	        -21.68051341	         10.25484754	         -5.92398246	          3.22128632	         28.28973284	         -1.01402676	         72.03529958	         51.89089354	        -11.95542654	
          5.11000000	        -21.65981958	         10.11368094	         -6.21612999	          3.23077555	         27.77574352	         -0.86087396	         71.70685873	         51.54369581	        -11.49508391	
          5.12000000	        -21.65303716	          9.95204784	         -6.52793087	          3.22754636	         27.25314204	         -0.70458858	         71.37513632	         51.21253670	        -11.09848707	
          5.13000000	        -21.66042253	          9.77437740	         -6.85993808	          3.21429322	         26.72435553	         -0.54567707	         71.04094996	         50.89427821	        -10.75985825	
          5.14000000	        -21.68046563	          9.58535087	         -7.20881825	          3.19374195	         26.19290221	         -0.38502540	         70.70293705	         50.58385010	        -10.46559842	
          5.15000000	        -21.71077558	          9.38947556	         -7.56901415	          3.16833530	         25.66311457	         -0.22384696	         70.35901991	         50.27486658	        -10.19668477	
          5.16000000	        -21.74867055	          9.19089002	         -7.93420775	          3.14018518	         25.13953756	         -0.06350031	         70.00800071	         49.96071621	         -9.93336292	
          5.17000000	        -21.79200074	          8.99314316	         -8.29961418	          3.11114251	         24.62572193	          0.09490086	         69.65046876	         49.63622172	         -9.66256428	
          5.18000000	        -21.83957914	          8.79910846	         -8.66358946	          3.08301079	         24.12299726	          0.25089793	         69.28852521	         49.29914972	         -9.38463480	
          5.19000000	        -21.88754402	          8.61065170	         -9.02120057	          3.05766845	         23.62992314	          0.40487078	         68.92457680	         48.95074224	         -9.11535404	
          5.20000000	        -21.96857990	          8.43174066	         -9.43627993	          3.03694520	         23.14289669	          0.55796982	         68.55989074	         48.59483647	         -8.88063074	
          5.21000000	        -21.89066944	          8.24877405	         -9.55814420	          3.02320616	         22.65713352	          0.71115012	         68.19358313	         48.23642586	         -8.70712926	
          5.22000000	        -22.01029131	          8.08939056	        -10.04925455	          3.01731817	         22.16716632	          0.86719777	         67.82115603	         47.88084235	         -8.60635675	
          5.23000000	        -22.06106808	          7.92585167	        -10.41392687	          3.01432551	         21.67319697	          1.02494933	         67.44107633	         47.52557703	         -8.56785191	
          5.24000000	        -22.22149986	          7.78645171	        -10.99635282	          3.02784525	         21.16298795	          1.18849907	         67.04311605	         47.18396064	         -8.56330383	
          5.25000000	        -22.24658702	          7.65650822	        -11.34773007	          3.06186601	         20.63605245	          1.35869930	         66.62448460	         46.85681222	         -8.54662518	
          5.26000000	        -22.27838991	          7.53859015	        -11.71869586	          3.10749068	         20.10199780	          1.53193335	         66.19353242	         46.53310546	         -8.45977044	
          5.27000000	        -22.28727370	          7.42147206	        -12.04401179	          3.15569552	         19.57029132	          1.70510243	         65.75938742	         46.20267853	         -8.25285994	
          5.28000000	        -22.27821538	          7.29871092	        -12.32440167	          3.19926063	         19.04872287	          1.87543078	         65.33073278	         45.85813474	         -7.89551524	
          5.29000000	        -22.26054320	          7.16613912	        -12.57181106	          3.23316226	         18.54185500	          2.04116493	         64.91417817	         45.49649057	         -7.38300724	
